<svg width="51" height="54" viewBox="0 0 51 54" fill="none" xmlns="http://www.w3.org/2000/svg">
<g id="Group">
<path id="Vector" d="M50.7576 8.39169H46.7985V22.0127H48.3814V28.2672H45.3725V7.6008C45.3727 6.6026 45.1762 5.61416 44.7943 4.69192C44.4123 3.76968 43.8525 2.93171 43.1466 2.22588C42.4408 1.52005 41.6028 0.960184 40.6806 0.578263C39.7584 0.196342 38.7699 -0.000153821 37.7717 9.03474e-08H12.7501C10.7343 9.03474e-08 8.80098 0.800796 7.37555 2.22622C5.95012 3.65165 5.14933 5.58494 5.14933 7.6008V27.8712H2.53644V21.2183H4.19908V7.6008H0.241089V21.2183H1.90373V28.5062H5.14933V43.3926C5.14933 44.7577 5.51697 46.0976 6.21363 47.2716C6.91029 48.4456 7.91026 49.4102 9.10849 50.0643V53.9988H15.759V50.9923H34.6034V54H41.2563V50.1404C42.4963 49.5023 43.5364 48.5348 44.2626 47.3442C44.9887 46.1536 45.3727 44.786 45.3725 43.3915V28.8987H49.0153V22.0115H50.7576V8.39169ZM16.5523 1.58179H34.2871V5.70148H16.5523V1.58179ZM18.4516 43.0739H8.63396V38.6426H18.4516V43.0739ZM42.2054 43.0739H32.3878V38.6426H42.2054V43.0739ZM42.2054 28.8214C42.2054 28.8214 40.3049 34.8404 25.1033 34.8404C9.89939 34.8404 8.31525 28.8214 8.31525 28.8214V7.91599H42.2054V28.8214Z" fill="#0B0C0E"/>
</g>
</svg>
