<svg width="55" height="40" viewBox="0 0 55 40" fill="none" xmlns="http://www.w3.org/2000/svg">
<g id="Icon">
<path id="Vector" d="M54.1904 12.7177C54.0606 12.5588 53.8971 12.4306 53.7118 12.3424C53.5266 12.2542 53.324 12.2081 53.1188 12.2075H47.8633C46.5664 8.78676 44.8768 5.43518 42.9562 4.17004C36.3125 -0.200561 18.6905 -0.200561 12.0468 4.17004C10.1248 5.43656 8.44214 8.79229 7.13829 12.2075H1.88278C1.67744 12.2073 1.47467 12.2531 1.28927 12.3414C1.10388 12.4296 0.940548 12.5582 0.81121 12.7177C0.681083 12.8766 0.588207 13.0627 0.539397 13.2623C0.490588 13.4618 0.487085 13.6697 0.529146 13.8708L1.30759 17.6427C1.37213 17.954 1.54198 18.2336 1.78853 18.4343C2.03509 18.635 2.34329 18.7447 2.66122 18.7447H4.2181C2.71514 20.4786 1.98648 22.6618 1.9768 24.8464C1.96712 27.5454 2.99167 29.9844 4.86519 31.71C4.88593 31.7279 4.90667 31.7404 4.92602 31.7584V37.036C4.92602 38.1795 5.85518 39.11 7.00002 39.11H11.8476C12.9925 39.11 13.9216 38.1795 13.9216 37.036V34.915H41.0786V37.036C41.0786 38.1795 42.0077 39.11 43.1526 39.11H48.0002C49.1423 39.11 50.0742 38.1795 50.0742 37.036V31.8621C52.0625 30.0411 53.0124 27.5357 53.0248 25.0345C53.0331 22.7752 52.2713 20.5118 50.6798 18.742H52.3404C52.6588 18.7429 52.9677 18.6334 53.2145 18.4323C53.4613 18.2311 53.6307 17.9506 53.694 17.6386L54.4739 13.8681C54.514 13.6673 54.5094 13.4601 54.4605 13.2613C54.4115 13.0624 54.3193 12.8768 54.1904 12.7177ZM14.324 7.63362C19.6196 4.14792 35.3806 4.14792 40.6735 7.63362C41.7022 8.30836 43.0254 11.0364 44.238 14.3769H10.7623C11.9721 11.0377 13.2953 8.31113 14.324 7.63362ZM8.12136 25.3663C8.12155 24.2843 8.55153 23.2468 9.31673 22.4818C10.0819 21.7169 11.1196 21.2873 12.2016 21.2874C13.2836 21.2876 14.3212 21.7176 15.0861 22.4828C15.851 23.248 16.2807 24.2857 16.2805 25.3677C16.2804 25.9034 16.1748 26.4339 15.9697 26.9288C15.7646 27.4237 15.464 27.8734 15.0851 28.2522C14.7062 28.6309 14.2564 28.9313 13.7615 29.1363C13.2665 29.3412 12.736 29.4466 12.2002 29.4465C11.6645 29.4465 11.134 29.3408 10.6391 29.1357C10.1442 28.9306 9.69451 28.6301 9.31575 28.2512C8.55081 27.486 8.12118 26.4483 8.12136 25.3663ZM42.8526 29.4465C41.7702 29.4465 40.7322 29.0166 39.9669 28.2513C39.2016 27.4859 38.7716 26.4479 38.7716 25.3656C38.7716 24.2833 39.2016 23.2453 39.9669 22.48C40.7322 21.7146 41.7702 21.2847 42.8526 21.2847C43.9349 21.2847 44.9729 21.7146 45.7382 22.48C46.5035 23.2453 46.9335 24.2833 46.9335 25.3656C46.9335 26.4479 46.5035 27.4859 45.7382 28.2513C44.9729 29.0166 43.9349 29.4465 42.8526 29.4465Z" fill="#0B0C0E"/>
</g>
</svg>
