<svg width="49" height="54" viewBox="0 0 49 54" fill="none" xmlns="http://www.w3.org/2000/svg">
<g id="Group">
<path id="Vector" d="M24.3364 30.1908C21.3909 30.1908 19.0182 32.5635 19.0182 35.5089V47.7817C19.0182 50.7271 21.3909 53.0998 24.3364 53.0998C27.2819 53.0998 29.6546 50.7271 29.6546 47.7817V35.5089C29.6546 32.5635 27.2819 30.1908 24.3364 30.1908ZM45.2819 5.56348H41.1909C39.6364 5.56348 38.4091 6.79075 38.4091 8.34529V8.59075L35.2182 9.08166C35.3819 9.57257 35.5455 10.1453 35.6273 10.718L39.0637 10.2271C39.5546 10.8817 40.3728 11.2907 41.1909 11.2907H45.2819C46.8364 11.2907 48.0637 10.0635 48.0637 8.50893C48.1455 6.79075 46.8364 5.56348 45.2819 5.56348ZM9.85458 10.2271L12.9637 10.6362C13.0455 10.0635 13.2091 9.57257 13.3728 8.99984L10.5909 8.59075V8.34529C10.5909 6.79075 9.36368 5.56348 7.80913 5.56348H3.71822C2.16367 5.56348 0.936401 6.79075 0.936401 8.34529C0.936401 9.89984 2.16367 11.1271 3.71822 11.1271H7.72731C8.62731 11.2089 9.36368 10.7998 9.85458 10.2271Z" fill="#0B0C0E"/>
<path id="Vector_2" d="M38.0819 15.3001L34.3182 13.7455C34.3182 10.8001 33.5 8.01824 31.9455 5.64551L27.691 10.6364C26.791 11.7001 25.5637 12.2728 24.3364 12.2728C23.0273 12.2728 21.8819 11.7001 20.9819 10.6364L16.7273 5.64551C15.1728 7.93642 14.3546 10.8001 14.3546 13.7455L10.591 15.3001C8.38186 16.2001 7.15459 18.5728 7.72732 20.8637L8.30005 23.4001H13.0455C13.5364 23.4001 13.8637 23.7273 13.8637 24.2182C13.8637 24.7091 13.5364 25.0364 13.0455 25.0364H8.62732L9.36368 28.1455H14.6819C15.1728 28.1455 15.5 28.4728 15.5 28.9637C15.5 29.4546 15.1728 29.7819 14.6819 29.7819H9.77277L11.491 37.0637C11.5728 37.391 11.9 37.7182 12.3091 37.7182H16.4V43.6091C16.4 44.1001 16.7273 44.4273 17.2182 44.4273C17.7091 44.4273 18.0364 44.1001 18.0364 43.6091V33.4637C18.0364 29.8637 21.2273 28.2273 24.2546 28.2273C27.2819 28.2273 30.5546 29.8637 30.5546 33.5455V43.5273C30.5546 44.0182 30.9637 44.3455 31.3728 44.3455C31.7819 44.3455 32.191 44.0182 32.191 43.5273V37.6364H36.2819C36.691 37.6364 37.0182 37.391 37.1 36.9819L38.8182 29.7001H34.1546C33.6637 29.7001 33.3364 29.3728 33.3364 28.8819C33.3364 28.391 33.6637 28.0637 34.1546 28.0637H39.2273L39.9637 24.9546H35.6273C35.1364 24.9546 34.8091 24.6273 34.8091 24.1364C34.8091 23.6455 35.1364 23.3182 35.6273 23.3182H40.3728L40.9455 20.7819C41.5182 18.5728 40.291 16.1182 38.0819 15.3001ZM28.5091 25.1182H20.1637C17.9546 25.1182 16.2364 23.3182 16.2364 21.191C16.2364 19.0637 17.9546 17.1819 20.1637 17.1819H28.5091C30.7182 17.1819 32.4364 18.9819 32.4364 21.1091C32.4364 23.2364 30.7182 25.1182 28.5091 25.1182Z" fill="#0B0C0E"/>
<path id="Vector_3" d="M24.3364 10.6363C25.1546 10.6363 25.8909 10.2272 26.4637 9.57269L30.9637 4.33633C30.8 4.17269 30.7182 4.00906 30.5546 3.84542C28.6727 1.88178 26.4637 0.736328 24.3364 0.736328C22.2091 0.736328 20 1.88178 18.1182 3.7636C17.9546 3.92724 17.8727 4.09087 17.7091 4.25451L22.2091 9.49087C22.7818 10.3091 23.5182 10.6363 24.3364 10.6363ZM28.5091 18.8181H20.1637C18.8546 18.8181 17.8727 19.8818 17.8727 21.1091C17.8727 22.3363 18.9364 23.4 20.1637 23.4H28.5091C29.8182 23.4 30.8 22.3363 30.8 21.1091C30.8 19.8818 29.8182 18.8181 28.5091 18.8181Z" fill="#0B0C0E"/>
</g>
</svg>
