<svg width="12" height="12" viewBox="0 0 12 12" fill="none" xmlns="http://www.w3.org/2000/svg">
<g id="vuesax/linear/routing-2">
<g id="routing-2">
<path id="Vector" d="M2.73511 4.5C3.70161 4.5 4.48511 3.7165 4.48511 2.75C4.48511 1.7835 3.70161 1 2.73511 1C1.76861 1 0.985107 1.7835 0.985107 2.75C0.985107 3.7165 1.76861 4.5 2.73511 4.5Z" stroke="#0B0C0E"/>
<path id="Vector_2" d="M8.48511 7.5H9.98511C10.5351 7.5 10.9851 7.95 10.9851 8.5V10C10.9851 10.55 10.5351 11 9.98511 11H8.48511C7.93511 11 7.48511 10.55 7.48511 10V8.5C7.48511 7.95 7.93511 7.5 8.48511 7.5Z" stroke="#0B0C0E"/>
<path id="Vector_3" d="M6.00009 2.5H7.34009C8.26509 2.5 8.69509 3.645 8.00009 4.255L4.00509 7.75C3.31009 8.355 3.74009 9.5 4.66009 9.5H6.00009" stroke="#0B0C0E" stroke-linecap="round" stroke-linejoin="round"/>
<path id="Vector_4" d="M2.74311 2.75H2.74889" stroke="#0B0C0E" stroke-linecap="round" stroke-linejoin="round"/>
<path id="Vector_5" d="M9.24311 9.25H9.24888" stroke="#0B0C0E" stroke-linecap="round" stroke-linejoin="round"/>
</g>
</g>
</svg>
