<svg width="32" height="24" viewBox="0 0 32 24" fill="none" xmlns="http://www.w3.org/2000/svg">
<path id="Vector" d="M9.6448 2.9074e-07C8.67941 -0.000344804 7.74069 0.306528 6.97333 0.87332C6.20597 1.44011 5.65256 2.23536 5.3984 3.1365L3.8752 8.54566C2.80691 8.66983 1.82267 9.16845 1.10861 9.94723C0.39454 10.726 0.000144457 11.731 0 12.772V16.2553C0 17.5945 0.64 18.7881 1.6368 19.5683C1.77814 20.7075 2.31762 21.7657 3.16578 22.5675C4.01395 23.3693 5.11986 23.8665 6.30015 23.9767C7.48044 24.0869 8.66422 23.8035 9.65522 23.1735C10.6462 22.5435 11.3849 21.6046 11.7488 20.5127H19.4512C19.802 21.5576 20.4965 22.4628 21.4287 23.0902C22.3609 23.7176 23.4796 24.0327 24.6142 23.9874C25.7487 23.9422 26.8368 23.5391 27.7125 22.8396C28.5881 22.1401 29.2033 21.1826 29.464 20.1133C30.2222 19.7702 30.8635 19.225 31.3127 18.5416C31.7619 17.8583 32.0003 17.0652 32 16.2553V13.6421C32 12.6926 31.6721 11.7704 31.0682 11.022C30.4643 10.2736 29.6192 9.74198 28.6672 9.51169L25.1744 8.66641L21.1616 2.09307C20.7727 1.45557 20.2186 0.927221 19.5542 0.560167C18.8898 0.193112 18.1379 3.84871e-05 17.3728 2.9074e-07H9.6448ZM7.7152 3.74801C7.83068 3.33847 8.08213 2.97703 8.43081 2.71938C8.77949 2.46173 9.20607 2.32216 9.6448 2.32219H12V8.51469H6.3712L7.7152 3.74801ZM14.4 8.51469V2.32219H17.3728C18.0816 2.32219 18.736 2.68445 19.096 3.27274L22.296 8.51469H14.4ZM6.8 16.2553C7.54261 16.2553 8.2548 16.5408 8.7799 17.0488C9.305 17.5569 9.6 18.246 9.6 18.9645C9.6 19.6831 9.305 20.3722 8.7799 20.8803C8.2548 21.3883 7.54261 21.6738 6.8 21.6738C6.05739 21.6738 5.3452 21.3883 4.8201 20.8803C4.295 20.3722 4 19.6831 4 18.9645C4 18.246 4.295 17.5569 4.8201 17.0488C5.3452 16.5408 6.05739 16.2553 6.8 16.2553ZM21.6 18.9645C21.6 18.246 21.895 17.5569 22.4201 17.0488C22.9452 16.5408 23.6574 16.2553 24.4 16.2553C25.1426 16.2553 25.8548 16.5408 26.3799 17.0488C26.905 17.5569 27.2 18.246 27.2 18.9645C27.2 19.6831 26.905 20.3722 26.3799 20.8803C25.8548 21.3883 25.1426 21.6738 24.4 21.6738C23.6574 21.6738 22.9452 21.3883 22.4201 20.8803C21.895 20.3722 21.6 19.6831 21.6 18.9645Z" fill="black"/>
</svg>
